<?xml version="1.0" encoding="UTF-8" standalone="no"?>
<svg
   xmlns:dc="http://purl.org/dc/elements/1.1/"
   xmlns:cc="http://creativecommons.org/ns#"
   xmlns:rdf="http://www.w3.org/1999/02/22-rdf-syntax-ns#"
   xmlns:svg="http://www.w3.org/2000/svg"
   xmlns="http://www.w3.org/2000/svg"
   xmlns:sodipodi="http://sodipodi.sourceforge.net/DTD/sodipodi-0.dtd"
   xmlns:inkscape="http://www.inkscape.org/namespaces/inkscape"
   width="629.17"
   height="629.17"
   viewBox="0 0 629.1734 502.04477"
   version="1.1"
   id="svg80"
   sodipodi:docname="logo-inverted.svg"
   inkscape:version="1.0.1 (c497b03c, 2020-09-10)">
  <metadata
     id="metadata86">
    <rdf:RDF>
      <cc:Work
         rdf:about="">
        <dc:format>image/svg+xml</dc:format>
        <dc:type
           rdf:resource="http://purl.org/dc/dcmitype/StillImage" />
      </cc:Work>
    </rdf:RDF>
  </metadata>
  <defs
     id="defs84" />
  <sodipodi:namedview
     pagecolor="#ffffff"
     bordercolor="#666666"
     borderopacity="1"
     objecttolerance="10"
     gridtolerance="10"
     guidetolerance="10"
     inkscape:pageopacity="0"
     inkscape:pageshadow="2"
     inkscape:window-width="1440"
     inkscape:window-height="855"
     id="namedview82"
     showgrid="false"
     inkscape:zoom="1.0633057"
     inkscape:cx="412.39318"
     inkscape:cy="291.07341"
     inkscape:window-x="0"
     inkscape:window-y="23"
     inkscape:window-maximized="1"
     inkscape:current-layer="svg80" />
  <g
     transform="matrix(0.94309496,0,0,0.96079477,-52.970235,-0.07346994)"
     stroke="#000000"
     id="g78">
    <path
       d="m 466.85,283.48 c -48.502,34.166 -49.078,162.08 -106.16,160.03 -31.598,-10.726 -49.341,-27.033 -85.456,-23.448 -37.083,5.2308 -57.253,40.694 -75.447,69.454 -15.918,21.229 -38.592,45.392 -67.6,41.908 -24.898,-7.9206 -25.407,-37.669 1.7419,-56.969 27.1489,-19.3 -12.039,-41.299 -36.962,-7.2074 -24.923,34.0916 -13.449,64.656 12.649,89.459 21.4,14.601 52.172,9.3762 75.412,-9.8425 23.24,-19.2187 62.604,-62.555 107.66,-69.101 29.098,-1.8897 46.241,25.533 62.205,45.233 18.364,21.853 50.117,26.523 75.355,14.585 43.161,-18.393 71.248,-58.723 97.405,-95.798 28.641,-33.229 61.634,-132.77 58.468,-165.92 -26.364,-23.203 -77.159,22.533 -119.28,7.6151 z"
       fill="#ffd5d5"
       stroke-width="7.2"
       id="path10" />
    <path
       d="m 573.87,319.59 c 48.221,-10.584 98.902,-26.046 108.5,-80.264 -3.7357,-50.907 -35.081,-89.342 -77.736,-104.49 -59.151,-21.006 -10.329,-76.955 -81.663,-62.115 -43.862,-1.6888 -28.524,37.202 -66.215,60.745 -50.576,31.592 -88.001,74.841 -81.353,122.97 3.918,28.363 35.756,51.633 82.081,62.325"
       fill="#ffd5d5"
       fill-rule="evenodd"
       stroke-linecap="round"
       stroke-width="7.2"
       id="path12" />
    <path
       d="m 480.97,225.1 c 10.983,-14.778 33.909,-21.77 58.435,-22.507 27.951,-0.8398 51.543,2.3719 62.77,16.5"
       fill="#ffd5d5"
       fill-rule="evenodd"
       stroke-linecap="round"
       stroke-width="6.298"
       id="path14" />
    <path
       d="m 625.93,73.725 c -38.46,2.1438 -68.518,32.89 -70.689,70.45 -14.112,-11.172 -27.274,-5.2884 -40.344,2.2488 -6.6357,-36.719 -39.706,-63.608 -77.917,-61.478 -41.357,2.3053 -73.015,37.701 -70.71,79.058 2.305,41.357 37.701,73.015 79.058,70.71 38.212,-2.13 68.09,-32.496 70.604,-69.725 11.092,-6.8524 20.914,-16.911 40.531,-2.2593 6.9322,36.354 39.85,62.88 77.815,60.763 41.357,-2.3053 73.015,-37.701 70.71,-79.058 -2.305,-41.357 -37.701,-73.015 -79.058,-70.71 z"
       fill="#ffffff"
       fill-rule="evenodd"
       stroke-linecap="round"
       stroke-width="7.2"
       id="path16" />
    <path
       transform="rotate(-3.1907313,1021.0017,-22091.582)"
       d="m -737.14,92.362 c 0,32.348 -26.223,58.571 -58.571,58.571 -32.348,0 -58.571,-26.223 -58.571,-58.571 0,-32.348 26.223,-58.571 58.571,-58.571 32.348,0 58.571,26.223 58.571,58.571 z"
       fill="#ffffff"
       fill-rule="evenodd"
       stroke-linecap="round"
       stroke-width="3.6"
       id="path18" />
    <path
       transform="rotate(-3.1907313,913.51082,-25488.395)"
       d="m -737.14,92.362 c 0,32.348 -26.223,58.571 -58.571,58.571 -32.348,0 -58.571,-26.223 -58.571,-58.571 0,-32.348 26.223,-58.571 58.571,-58.571 32.348,0 58.571,26.223 58.571,58.571 z"
       fill="#ffffff"
       fill-rule="evenodd"
       stroke-linecap="round"
       stroke-width="3.6"
       id="path20" />
    <path
       transform="rotate(-3.1907313,-217.07717,-20464.184)"
       d="m -664.29,176.65 c 0,14.991 -12.152,27.143 -27.143,27.143 -14.991,0 -27.143,-12.152 -27.143,-27.143 0,-14.991 12.152,-27.143 27.143,-27.143 14.991,0 27.143,12.152 27.143,27.143 z"
       fill-rule="evenodd"
       stroke-linecap="round"
       stroke-width="7.2"
       id="path22" />
    <path
       transform="rotate(-3.1907313,97.372484,-20757.26)"
       d="m -688.57,170.22 c 0,7.4953 -6.0761,13.571 -13.571,13.571 -7.4949,0 -13.571,-6.0761 -13.571,-13.571 0,-7.4949 6.0761,-13.571 13.571,-13.571 7.4949,0 13.571,6.0761 13.571,13.571 z"
       fill="#ffffff"
       fill-rule="evenodd"
       stroke-linecap="round"
       stroke-width="7.2"
       id="path24" />
    <path
       transform="rotate(-3.1907313,-310.61359,-23824.676)"
       d="m -664.29,176.65 c 0,14.991 -12.152,27.143 -27.143,27.143 -14.991,0 -27.143,-12.152 -27.143,-27.143 0,-14.991 12.152,-27.143 27.143,-27.143 14.991,0 27.143,12.152 27.143,27.143 z"
       fill-rule="evenodd"
       stroke-linecap="round"
       stroke-width="7.2"
       id="path26" />
    <path
       transform="rotate(-3.1907313,34.048956,-23933.655)"
       d="m -688.57,170.22 c 0,7.4953 -6.0761,13.571 -13.571,13.571 -7.4949,0 -13.571,-6.0761 -13.571,-13.571 0,-7.4949 6.0761,-13.571 13.571,-13.571 7.4949,0 13.571,6.0761 13.571,13.571 z"
       fill="#ffffff"
       fill-rule="evenodd"
       stroke-linecap="round"
       stroke-width="7.2"
       id="path28" />
    <path
       d="m 499.3,278.93 c -17.724,0.98799 -31.697,9.1425 -31.192,18.202 0.505,9.0595 7.9312,37.483 25.656,36.495 17.7248,-0.988 39.031,-31.013 38.526,-40.072 -0.505,-9.059 -15.266,-15.612 -32.99,-14.624 z"
       fill="#ff8080"
       fill-rule="evenodd"
       stroke-linecap="round"
       stroke-width="7.2"
       id="path30" />
    <path
       d="m 430.96,246.98 c 2.2834,40.963 69.344,47.394 104.08,44.272 37.643,-3.3838 105.52,-6.2797 103.24,-47.243"
       fill="#ffd5d5"
       fill-rule="evenodd"
       stroke-linecap="round"
       stroke-width="7.2"
       id="path32" />
    <path
       transform="rotate(-3.1907313,1956.6991,-21345.079)"
       d="m -665.71,115.93 c 0,3.5504 -2.8782,6.4286 -6.4286,6.4286 -3.5504,0 -6.4286,-2.8782 -6.4286,-6.4286 0,-3.5504 2.8782,-6.4286 6.4286,-6.4286 3.5504,0 6.4286,2.8782 6.4286,6.4286 z"
       fill-rule="evenodd"
       stroke-linecap="round"
       stroke-width="7.2"
       id="path34" />
    <path
       transform="rotate(-3.1907313,1911.1166,-21923.064)"
       d="m -665.71,115.93 c 0,3.5504 -2.8782,6.4286 -6.4286,6.4286 -3.5504,0 -6.4286,-2.8782 -6.4286,-6.4286 0,-3.5504 2.8782,-6.4286 6.4286,-6.4286 3.5504,0 6.4286,2.8782 6.4286,6.4286 z"
       fill-rule="evenodd"
       stroke-linecap="round"
       stroke-width="7.2"
       id="path36" />
    <g
       transform="translate(-1.0102,3.0305)"
       fill-rule="evenodd"
       stroke-linecap="round"
       id="g76">
      <path
         d="m 613.09,361.23 c -0.34014,0.0191 -0.65802,0.0626 -0.99485,0.13803 -5.3892,1.2075 -8.1936,9.2312 -6.2399,17.951 0.84084,3.7528 2.4339,7.0326 4.3924,9.4392 -4.7429,5.4583 -7.6709,15.315 -7.1763,26.439 0.74123,16.668 10.229,29.876 19.291,27.921 10.431,-2.2513 17.085,-14.302 15.424,-30.903 -1.8831,-18.811 -6.3761,-25.273 -12.284,-27.231 0.65889,-2.9371 0.67326,-6.4346 -0.13346,-10.035 -1.8316,-8.175 -7.1761,-14.012 -12.278,-13.718 z"
         fill="#ffd5d5"
         stroke-width="7.2"
         id="path38" />
      <path
         d="m 390.5,339.2 c 0.34049,-0.0111 0.66098,0.004 1.0032,0.0492 5.4751,0.72433 8.9807,8.4675 7.8087,17.326 -0.50439,3.8127 -1.8,7.2209 -3.5372,9.7918 5.2087,5.0157 9.0001,14.574 9.4948,25.697 0.74124,16.668 -7.5365,30.666 -16.736,29.523 -10.589,-1.3166 -18.288,-12.729 -18.106,-29.412 0.2059,-18.904 4.1075,-25.74 9.8188,-28.214 -0.91701,-2.867 -1.2418,-6.3495 -0.75784,-10.007 1.0987,-8.3053 5.904,-14.594 11.012,-14.754 z"
         fill="#ffd5d5"
         stroke-width="7.2"
         id="path40" />
      <path
         d="m 585.69,334.77 c -25.142,8.3417 -47.735,24.341 -74.63,26.842 -4.2538,0.92418 -10.689,-0.93861 -8.8689,5.8954 l -10.338,112.21 c 18.331,3.3956 38.515,1.4904 53.394,-10.511 5.7605,-2.4364 13.489,-5.672 12.413,-13.14 9.2046,-40.354 19.877,-81.313 28.031,-121.29 z"
         fill="#ffffff"
         stroke-width="4.5869"
         id="path42" />
      <path
         d="m 426.94,319.85 c 23.055,13.045 42.128,33.111 68.033,40.765 3.9949,1.7292 10.669,1.1458 7.5617,7.4989 l -11.552,112.09 c -18.642,-0.21264 -38.076,-5.9844 -50.354,-20.637 -5.1807,-3.5042 -12.137,-8.173 -9.6385,-15.292 -1.2286,-41.372 -3.7807,-83.622 -4.0502,-124.43 z"
         fill="#ffffff"
         stroke-width="4.5869"
         id="path44" />
      <path
         d="m 587.82,340.98 c -25.142,8.3417 -47.735,24.341 -74.63,26.842 -4.2538,0.92417 -10.689,-0.93861 -8.8689,5.8954 l -10.338,112.21 c 18.331,3.3956 38.515,1.4904 53.394,-10.511 5.7604,-2.4364 13.489,-5.672 12.413,-13.14 9.2046,-40.354 19.877,-81.313 28.031,-121.29 z"
         fill="#ffffff"
         stroke-width="4.5869"
         id="path46" />
      <path
         d="m 423.65,325.53 c 23.055,13.045 42.128,33.111 68.033,40.765 3.9949,1.7292 10.669,1.1458 7.5617,7.4989 l -11.552,112.09 c -18.642,-0.21264 -38.076,-5.9843 -50.354,-20.637 -5.1807,-3.5042 -12.137,-8.173 -9.6385,-15.292 -1.2286,-41.372 -3.7807,-83.622 -4.0502,-124.43 z"
         fill="#ffffff"
         stroke-width="4.5869"
         id="path48" />
      <path
         d="m 588.58,346.71 c -25.142,8.3417 -47.735,24.341 -74.63,26.842 -4.2538,0.92418 -10.689,-0.93861 -8.8689,5.8954 l -10.338,112.21 c 18.331,3.3956 38.515,1.4904 53.394,-10.511 5.7604,-2.4364 13.489,-5.672 12.413,-13.14 9.2046,-40.354 19.877,-81.313 28.031,-121.29 z"
         fill="#ffffff"
         stroke-width="4.5869"
         id="path50" />
      <path
         d="m 421.79,331 c 23.055,13.045 42.128,33.111 68.033,40.765 3.9949,1.7292 10.669,1.1458 7.5617,7.4989 l -11.552,112.09 c -18.642,-0.21263 -38.076,-5.9844 -50.354,-20.637 -5.1807,-3.5042 -12.137,-8.173 -9.6385,-15.292 -1.2286,-41.372 -3.7807,-83.622 -4.0502,-124.43 z"
         fill="#ffffff"
         stroke-width="4.5869"
         id="path52" />
      <path
         transform="rotate(5.574)"
         d="m 525.15,324.03 h 25.483 V 460.55 H 525.15 Z"
         fill="#501616"
         stroke-width="9.1738"
         id="path54" />
      <path
         d="m 516.29,375.83 -12.612,135.85 c 49.458,8.5958 51.305,-0.83572 83.995,-17.975 l 34.295,-146.02 c -16.988,-9.5899 -58.374,30.503 -105.68,28.144 z"
         fill="#782121"
         stroke-width="7.2"
         id="path56" />
      <path
         d="m 492.83,373.35 -13.893,135.73 c -50.187,-1.129 -50.175,-10.739 -78.935,-33.876 l -5.4157,-149.9 c 18.522,-6.1244 51.375,41.214 98.243,48.046 z"
         fill="#782121"
         stroke-width="7.2"
         id="path58" />
      <g
         transform="matrix(0.99901,-0.04443,0.04443,0.99901,435.92,121.06)"
         fill="#ffd5d5"
         stroke-width="7.2"
         id="g66">
        <path
           d="m 172.07,284.71 c -3.9226,-2.9559 -11.6,-3.0578 -19.917,-3.0578 -12.487,0 -15.662,5.5866 -15.125,10.357 0.94001,8.3577 2.6384,9.6429 15.125,9.6429 9.4408,0 17.024,-0.51985 20.538,-4.7026"
           id="path60" />
        <path
           d="m 163.02,315.21 c -12.487,0 -26.642,0.52349 -26.344,8.9286 0.29048,8.1815 3.281,6.7196 15.629,8.5714 6.8187,1.0225 15.941,0.13152 21.562,-3.5835"
           id="path62" />
        <path
           d="m 172.67,297.65 c -3.8595,-3.2916 -11.309,0.41643 -19.824,0.41643 -12.487,0 -22.951,1.2629 -22.594,10 0.22557,5.5182 10.107,7.8571 22.594,7.8571 8.645,0 16.502,-1.7976 20.312,-4.528"
           id="path64" />
      </g>
      <g
         transform="matrix(-0.99901,0.04443,0.04443,0.99901,545.65,84.249)"
         fill="#ffd5d5"
         stroke-width="7.2"
         id="g74">
        <path
           d="m 172.07,284.71 c -3.9226,-2.9559 -11.6,-3.0578 -19.917,-3.0578 -12.487,0 -15.662,5.5866 -15.125,10.357 0.94001,8.3577 2.6384,9.6429 15.125,9.6429 9.4408,0 17.024,-0.51985 20.538,-4.7026"
           id="path68" />
        <path
           d="m 163.02,315.21 c -12.487,0 -26.642,0.52349 -26.344,8.9286 0.29048,8.1815 3.281,6.7196 15.629,8.5714 6.8187,1.0225 13.416,0.63659 19.037,-3.0785"
           id="path70" />
        <path
           d="m 172.67,297.65 c -3.8595,-3.2916 -11.309,0.41643 -19.824,0.41643 -12.487,0 -22.951,1.2629 -22.594,10 0.22557,5.5182 10.107,7.8571 22.594,7.8571 8.645,0 16.502,-1.7976 20.312,-4.528"
           id="path72" />
      </g>
    </g>
  </g>
  <text
     xml:space="preserve"
     style="font-style:normal;font-variant:normal;font-weight:normal;font-stretch:normal;font-size:109.334px;line-height:1.25;font-family:Lato;-inkscape-font-specification:'Lato, Normal';font-variant-ligatures:normal;font-variant-caps:normal;font-variant-numeric:normal;font-variant-east-asian:normal;fill:#ff8080;fill-opacity:1;stroke:none;stroke-width:1.08229"
     x="18.762058"
     y="32.743786"
     id="text90"
     transform="scale(1.1182859,0.8942257)"><tspan
       sodipodi:role="line"
       id="tspan88"
       x="18.762058"
       y="32.743786"
       style="font-style:normal;font-variant:normal;font-weight:normal;font-stretch:normal;font-size:109.334px;font-family:Lato;-inkscape-font-specification:'Lato, Normal';font-variant-ligatures:normal;font-variant-caps:normal;font-variant-numeric:normal;font-variant-east-asian:normal;fill:#ff8080;fill-opacity:1;stroke-width:1.08229">Bookworm</tspan></text>
</svg>
